<svg clip-rule="evenodd" fill-rule="evenodd" stroke-linejoin="round" stroke-miterlimit="2" viewBox="0 0 448 512" xmlns="http://www.w3.org/2000/svg"><path d="m16 132h416c8.837 0 16-7.163 16-16v-40c0-8.837-7.163-16-16-16h-416c-8.837 0-16 7.163-16 16v40c0 8.837 7.163 16 16 16zm0 160h416c8.837 0 16-7.163 16-16v-40c0-8.837-7.163-16-16-16h-416c-8.837 0-16 7.163-16 16v40c0 8.837 7.163 16 16 16zm0 160h416c8.837 0 16-7.163 16-16v-40c0-8.837-7.163-16-16-16h-416c-8.837 0-16 7.163-16 16v40c0 8.837 7.163 16 16 16z" fill="#fff" fill-rule="nonzero"/></svg>