<?xml version="1.0" encoding="UTF-8" standalone="no"?><!DOCTYPE svg PUBLIC "-//W3C//DTD SVG 1.1//EN" "http://www.w3.org/Graphics/SVG/1.1/DTD/svg11.dtd"><svg width="100%" height="100%" viewBox="0 0 448 512" version="1.1" xmlns="http://www.w3.org/2000/svg" xmlns:xlink="http://www.w3.org/1999/xlink" xml:space="preserve" xmlns:serif="http://www.serif.com/" style="fill-rule:evenodd;clip-rule:evenodd;stroke-linejoin:round;stroke-miterlimit:2;"><path d="M16,132l416,0c8.837,0 16,-7.163 16,-16l0,-40c0,-8.837 -7.163,-16 -16,-16l-416,0c-8.837,0 -16,7.163 -16,16l0,40c0,8.837 7.163,16 16,16Zm0,160l416,0c8.837,0 16,-7.163 16,-16l0,-40c0,-8.837 -7.163,-16 -16,-16l-416,0c-8.837,0 -16,7.163 -16,16l0,40c0,8.837 7.163,16 16,16Zm0,160l416,0c8.837,0 16,-7.163 16,-16l0,-40c0,-8.837 -7.163,-16 -16,-16l-416,0c-8.837,0 -16,7.163 -16,16l0,40c0,8.837 7.163,16 16,16Z" style="fill:#fff;fill-rule:nonzero;"/></svg>