<?xml version="1.0" encoding="UTF-8" standalone="no"?><!DOCTYPE svg PUBLIC "-//W3C//DTD SVG 1.1//EN" "http://www.w3.org/Graphics/SVG/1.1/DTD/svg11.dtd"><svg width="100%" height="100%" viewBox="0 0 512 512" version="1.1" xmlns="http://www.w3.org/2000/svg" xmlns:xlink="http://www.w3.org/1999/xlink" xml:space="preserve" xmlns:serif="http://www.serif.com/" style="fill-rule:evenodd;clip-rule:evenodd;stroke-linejoin:round;stroke-miterlimit:2;"><path d="M256.455,8c66.269,0.119 126.437,26.233 170.859,68.685l35.715,-35.715c15.12,-15.119 40.971,-4.411 40.971,16.971l0,134.059c0,13.255 -10.745,24 -24,24l-134.059,0c-21.382,0 -32.09,-25.851 -16.971,-40.971l41.75,-41.75c-30.864,-28.899 -70.801,-44.907 -113.23,-45.273c-92.398,-0.798 -170.283,73.977 -169.484,169.442c0.758,90.561 74.178,166.552 167.994,166.552c41.127,0 79.997,-14.678 110.629,-41.556c4.743,-4.161 11.906,-3.908 16.368,0.553l39.662,39.662c4.872,4.872 4.631,12.815 -0.482,17.433c-43.975,39.721 -102.251,63.908 -166.177,63.908c-136.966,0 -247.999,-111.033 -248,-247.998c-0.001,-136.809 111.646,-248.247 248.455,-248.002Z" style="fill:#fff;fill-rule:nonzero;"/></svg>